<svg width="24" height="25" viewBox="0 0 24 25" fill="none" xmlns="http://www.w3.org/2000/svg">
<path d="M12 14.3999C14.206 14.3999 16 12.6059 16 10.3999C16 8.1939 14.206 6.3999 12 6.3999C9.794 6.3999 8 8.1939 8 10.3999C8 12.6059 9.794 14.3999 12 14.3999ZM12 8.3999C13.103 8.3999 14 9.2969 14 10.3999C14 11.5029 13.103 12.3999 12 12.3999C10.897 12.3999 10 11.5029 10 10.3999C10 9.2969 10.897 8.3999 12 8.3999Z" fill="#FDFDFD"/>
<path d="M11.4201 22.2139C11.5893 22.3348 11.7921 22.3997 12.0001 22.3997C12.2081 22.3997 12.4108 22.3348 12.5801 22.2139C12.8841 21.9989 20.0291 16.8399 20.0001 10.3999C20.0001 5.9889 16.4111 2.3999 12.0001 2.3999C7.58909 2.3999 4.00009 5.9889 4.00009 10.3949C3.97109 16.8399 11.1161 21.9989 11.4201 22.2139ZM12.0001 4.3999C15.3091 4.3999 18.0001 7.0909 18.0001 10.4049C18.0211 14.8429 13.6121 18.8279 12.0001 20.1349C10.3891 18.8269 5.97909 14.8409 6.00009 10.3999C6.00009 7.0909 8.69109 4.3999 12.0001 4.3999Z" fill="#FDFDFD"/>
</svg>
