<svg width="60" height="72" viewBox="0 0 60 72" fill="none" xmlns="http://www.w3.org/2000/svg">
<path d="M53.8535 0.698303H6.14648C4.74063 0.698303 3.39235 1.2705 2.39827 2.28902C1.40418 3.30753 0.845703 4.68894 0.845703 6.12934V65.8707C0.845703 67.3111 1.40418 68.6925 2.39827 69.711C3.39235 70.7296 4.74063 71.3018 6.14648 71.3018H53.8535C55.2594 71.3018 56.6076 70.7296 57.6017 69.711C58.5958 68.6925 59.1543 67.3111 59.1543 65.8707V6.12934C59.1543 4.68894 58.5958 3.30753 57.6017 2.28902C56.6076 1.2705 55.2594 0.698303 53.8535 0.698303ZM16.748 60.4397C15.9618 60.4397 15.1931 60.2008 14.5393 59.7532C13.8855 59.3056 13.376 58.6695 13.0751 57.9252C12.7742 57.1809 12.6955 56.3619 12.8489 55.5718C13.0022 54.7816 13.3809 54.0558 13.9369 53.4862C14.4929 52.9165 15.2013 52.5286 15.9724 52.3714C16.7436 52.2142 17.543 52.2949 18.2694 52.6032C18.9959 52.9115 19.6168 53.4336 20.0536 54.1034C20.4905 54.7733 20.7236 55.5608 20.7236 56.3664C20.7236 57.4467 20.3048 58.4828 19.5592 59.2466C18.8136 60.0105 17.8024 60.4397 16.748 60.4397ZM16.748 46.8621C15.9618 46.8621 15.1931 46.6232 14.5393 46.1756C13.8855 45.728 13.376 45.0919 13.0751 44.3476C12.7742 43.6033 12.6955 42.7843 12.8489 41.9942C13.0022 41.204 13.3809 40.4782 13.9369 39.9086C14.4929 39.3389 15.2013 38.951 15.9724 38.7938C16.7436 38.6366 17.543 38.7173 18.2694 39.0256C18.9959 39.3339 19.6168 39.856 20.0536 40.5258C20.4905 41.1957 20.7236 41.9832 20.7236 42.7888C20.7236 43.8691 20.3048 44.9052 19.5592 45.6691C18.8136 46.4329 17.8024 46.8621 16.748 46.8621ZM30 60.4397C29.2137 60.4397 28.4451 60.2008 27.7913 59.7532C27.1375 59.3056 26.6279 58.6695 26.327 57.9252C26.0261 57.1809 25.9474 56.3619 26.1008 55.5718C26.2542 54.7816 26.6328 54.0558 27.1888 53.4862C27.7448 52.9165 28.4532 52.5286 29.2244 52.3714C29.9956 52.2142 30.7949 52.2949 31.5214 52.6032C32.2478 52.9115 32.8687 53.4336 33.3056 54.1034C33.7424 54.7733 33.9756 55.5608 33.9756 56.3664C33.9756 57.4467 33.5567 58.4828 32.8112 59.2466C32.0656 60.0105 31.0544 60.4397 30 60.4397ZM30 46.8621C29.2137 46.8621 28.4451 46.6232 27.7913 46.1756C27.1375 45.728 26.6279 45.0919 26.327 44.3476C26.0261 43.6033 25.9474 42.7843 26.1008 41.9942C26.2542 41.204 26.6328 40.4782 27.1888 39.9086C27.7448 39.3389 28.4532 38.951 29.2244 38.7938C29.9956 38.6366 30.7949 38.7173 31.5214 39.0256C32.2478 39.3339 32.8687 39.856 33.3056 40.5258C33.7424 41.1957 33.9756 41.9832 33.9756 42.7888C33.9756 43.8691 33.5567 44.9052 32.8112 45.6691C32.0656 46.4329 31.0544 46.8621 30 46.8621ZM43.252 60.4397C42.4657 60.4397 41.697 60.2008 41.0432 59.7532C40.3895 59.3056 39.8799 58.6695 39.579 57.9252C39.2781 57.1809 39.1994 56.3619 39.3528 55.5718C39.5062 54.7816 39.8848 54.0558 40.4408 53.4862C40.9968 52.9165 41.7052 52.5286 42.4764 52.3714C43.2475 52.2142 44.0469 52.2949 44.7733 52.6032C45.4998 52.9115 46.1207 53.4336 46.5575 54.1034C46.9944 54.7733 47.2275 55.5608 47.2275 56.3664C47.2275 57.4467 46.8087 58.4828 46.0631 59.2466C45.3175 60.0105 44.3063 60.4397 43.252 60.4397ZM43.252 46.8621C42.4657 46.8621 41.697 46.6232 41.0432 46.1756C40.3895 45.728 39.8799 45.0919 39.579 44.3476C39.2781 43.6033 39.1994 42.7843 39.3528 41.9942C39.5062 41.204 39.8848 40.4782 40.4408 39.9086C40.9968 39.3389 41.7052 38.951 42.4764 38.7938C43.2475 38.6366 44.0469 38.7173 44.7733 39.0256C45.4998 39.3339 46.1207 39.856 46.5575 40.5258C46.9944 41.1957 47.2275 41.9832 47.2275 42.7888C47.2275 43.8691 46.8087 44.9052 46.0631 45.6691C45.3175 46.4329 44.3063 46.8621 43.252 46.8621ZM48.5527 27.8535C48.5527 28.5737 48.2735 29.2644 47.7765 29.7736C47.2794 30.2829 46.6053 30.569 45.9023 30.569H14.0977C13.3947 30.569 12.7206 30.2829 12.2235 29.7736C11.7265 29.2644 11.4473 28.5737 11.4473 27.8535V14.2759C11.4473 13.5557 11.7265 12.865 12.2235 12.3557C12.7206 11.8465 13.3947 11.5604 14.0977 11.5604H45.9023C46.6053 11.5604 47.2794 11.8465 47.7765 12.3557C48.2735 12.865 48.5527 13.5557 48.5527 14.2759V27.8535Z" fill="#FDFDFD"/>
</svg>
