<svg width="1442" height="619" viewBox="0 0 1442 619" fill="none" xmlns="http://www.w3.org/2000/svg">
<path fill-rule="evenodd" clip-rule="evenodd" d="M0.307373 554.682L182.594 619H0.307373V554.682Z" fill="#f9cca3"/>
<path fill-rule="evenodd" clip-rule="evenodd" d="M724.261 402.799L761.438 0C734.67 0.0934857 710.007 0.218133 687.084 0.373943L724.237 402.799H724.261Z" fill="#f9cca3"/>
<path fill-rule="evenodd" clip-rule="evenodd" d="M643.245 427.167L569.502 1.74512C539.819 2.24371 512.585 2.80462 485.866 3.3967L643.269 427.167H643.245Z" fill="#f9cca3"/>
<path fill-rule="evenodd" clip-rule="evenodd" d="M561.984 464.094L349.157 6.26348C308.429 3.39659 270.761 3.67704 236.425 6.73091L561.984 464.094Z" fill="#f9cca3"/>
<path fill-rule="evenodd" clip-rule="evenodd" d="M838.193 412.708L873.142 0.591797C900.009 1.49549 925.651 3.36521 950.142 6.10745L838.193 412.708Z" fill="#f9cca3"/>
<path fill-rule="evenodd" clip-rule="evenodd" d="M913.65 450.726L1066.91 28.5132C1094.76 36.4906 1120.77 46.1197 1145.04 57.4937L913.65 450.726Z" fill="#f9cca3"/>
<path fill-rule="evenodd" clip-rule="evenodd" d="M987.196 501.177L1249.98 126.081C1270.63 144.342 1289.56 164.597 1307 186.909L987.196 501.146V501.177Z" fill="#f9cca3"/>
<path fill-rule="evenodd" clip-rule="evenodd" d="M444.917 598.683L0.307373 439.228V340.414L444.917 598.683Z" fill="#f9cca3"/>
<path fill-rule="evenodd" clip-rule="evenodd" d="M478.347 512.27L0.0134176 181.486C-0.525384 141.163 15.1733 105.7 45.2483 77.2808L478.347 512.27Z" fill="#f9cca3"/>
<path fill-rule="evenodd" clip-rule="evenodd" d="M1137.3 619L1441.8 553.56C1438.96 532.12 1435.7 511.803 1432.12 492.482L1127.24 619H1137.28H1137.3Z" fill="#f9cca3"/>
<path fill-rule="evenodd" clip-rule="evenodd" d="M1075.78 544.492L1403.74 377.09C1396.39 353.625 1388.51 331.75 1380.25 311.027L1075.78 544.492Z" fill="#f9cca3"/>
</svg>
