<svg width="1662" height="2237" viewBox="0 0 1662 2237" fill="none" xmlns="http://www.w3.org/2000/svg">
<path fill-rule="evenodd" clip-rule="evenodd" d="M207.074 1071.74L299.699 1028H207L207.074 1071.74Z" fill="#f9cca3"/>
<path fill-rule="evenodd" clip-rule="evenodd" d="M695.331 1065.83L207.866 1605.38L208.237 1854.14L695.331 1065.83Z" fill="#f9cca3"/>
<path fill-rule="evenodd" clip-rule="evenodd" d="M938.273 1166.24L969.939 1610.51C950.37 1609.37 928.995 1607.77 906.928 1605.79L938.248 1166.24H938.273Z" fill="#f9cca3"/>
<path fill-rule="evenodd" clip-rule="evenodd" d="M856.435 1134.36L708.889 2236.85L540.586 2235.91L856.435 1134.36Z" fill="#f9cca3"/>
<path fill-rule="evenodd" clip-rule="evenodd" d="M774.349 1086L375.525 2197.48L362.091 2234.93L208.831 2234.08L208.633 2115.6L225.035 2085.77L774.349 1086Z" fill="#f9cca3"/>
<path fill-rule="evenodd" clip-rule="evenodd" d="M1075.68 1162.72L1104.97 1610C1127.33 1608.9 1148.85 1607.17 1169.64 1604.75L1075.68 1162.72Z" fill="#f9cca3"/>
<path fill-rule="evenodd" clip-rule="evenodd" d="M1190.44 1167.18L1320.18 1571.36C1342.12 1563.62 1362.88 1554.68 1382.57 1544.61L1190.44 1167.18Z" fill="#f9cca3"/>
<path fill-rule="evenodd" clip-rule="evenodd" d="M1303.62 1115.73L1515.27 1441.74C1531.43 1423.49 1546.42 1403.73 1560.35 1382.43L1303.62 1115.73Z" fill="#f9cca3"/>
<path fill-rule="evenodd" clip-rule="evenodd" d="M604.86 1028L207.346 1252.43L207.544 1388L604.86 1028Z" fill="#f9cca3"/>
<path fill-rule="evenodd" clip-rule="evenodd" d="M1647.77 1187.48L1371.41 1041.47L1662 1112.15C1658.09 1140.44 1653.37 1165.58 1647.77 1187.48Z" fill="#f9cca3"/>
<path fill-rule="evenodd" clip-rule="evenodd" d="M0.307373 554.682L182.594 619H0.307373V554.682Z" fill="#f9cca3"/>
<path fill-rule="evenodd" clip-rule="evenodd" d="M724.261 402.799L761.438 0C734.67 0.0934857 710.007 0.218133 687.084 0.373943L724.237 402.799H724.261Z" fill="#f9cca3"/>
<path fill-rule="evenodd" clip-rule="evenodd" d="M643.245 427.167L569.502 1.74512C539.819 2.24371 512.585 2.80462 485.866 3.3967L643.269 427.167H643.245Z" fill="#f9cca3"/>
<path fill-rule="evenodd" clip-rule="evenodd" d="M561.984 464.094L349.157 6.26348C308.429 3.39659 270.761 3.67704 236.425 6.73091L561.984 464.094Z" fill="#f9cca3"/>
<path fill-rule="evenodd" clip-rule="evenodd" d="M838.193 412.708L873.142 0.591797C900.009 1.49549 925.651 3.36521 950.142 6.10745L838.193 412.708Z" fill="#f9cca3"/>
<path fill-rule="evenodd" clip-rule="evenodd" d="M913.65 450.726L1066.91 28.5132C1094.76 36.4906 1120.77 46.1197 1145.04 57.4937L913.65 450.726Z" fill="#f9cca3"/>
<path fill-rule="evenodd" clip-rule="evenodd" d="M987.196 501.177L1249.98 126.081C1270.63 144.342 1289.56 164.597 1307 186.909L987.196 501.146V501.177Z" fill="#f9cca3"/>
<path fill-rule="evenodd" clip-rule="evenodd" d="M444.917 598.683L0.307373 439.228V340.414L444.917 598.683Z" fill="#f9cca3"/>
<path fill-rule="evenodd" clip-rule="evenodd" d="M478.347 512.27L0.0134176 181.486C-0.525384 141.163 15.1733 105.7 45.2483 77.2808L478.347 512.27Z" fill="#f9cca3"/>
<path fill-rule="evenodd" clip-rule="evenodd" d="M1137.3 619L1441.8 553.56C1438.96 532.12 1435.7 511.803 1432.12 492.482L1127.24 619H1137.28H1137.3Z" fill="#f9cca3"/>
<path fill-rule="evenodd" clip-rule="evenodd" d="M1075.78 544.492L1403.74 377.09C1396.39 353.625 1388.51 331.75 1380.25 311.027L1075.78 544.492Z" fill="#f9cca3"/>
</svg>
