<svg width="892" height="236" viewBox="0 0 892 236" fill="none" xmlns="http://www.w3.org/2000/svg">
<g opacity="0.15">
<path fill-rule="evenodd" clip-rule="evenodd" d="M510.693 288.021L537.55 -130.54C518.213 -130.442 500.396 -130.313 483.836 -130.151L510.675 288.021H510.693Z" fill="#5C5D5F"/>
<path fill-rule="evenodd" clip-rule="evenodd" d="M452.165 313.344L398.893 -128.726C377.449 -128.208 357.775 -127.625 338.473 -127.01L452.183 313.344H452.165Z" fill="#5C5D5F"/>
<path fill-rule="evenodd" clip-rule="evenodd" d="M393.464 351.715L239.716 -124.031C210.293 -127.01 183.082 -126.719 158.277 -123.546L393.464 351.715Z" fill="#5C5D5F"/>
<path fill-rule="evenodd" clip-rule="evenodd" d="M593 298.318L618.247 -129.925C637.656 -128.986 656.18 -127.043 673.873 -124.193L593 298.318Z" fill="#5C5D5F"/>
<path fill-rule="evenodd" clip-rule="evenodd" d="M647.508 337.824L758.228 -100.91C778.344 -92.6207 797.134 -82.6149 814.667 -70.7957L647.508 337.824Z" fill="#5C5D5F"/>
<path fill-rule="evenodd" clip-rule="evenodd" d="M700.641 390.249L890.482 0.475342C905.396 19.4508 919.073 40.4987 931.67 63.6837L700.641 390.217V390.249Z" fill="#5C5D5F"/>
<path fill-rule="evenodd" clip-rule="evenodd" d="M308.893 491.571L-12.2969 325.876V223.195L308.893 491.571Z" fill="#5C5D5F"/>
<path fill-rule="evenodd" clip-rule="evenodd" d="M333.043 401.777L-12.5098 58.0491C-12.8991 16.1476 -1.55816 -20.7023 20.1683 -50.2341L333.043 401.777Z" fill="#5C5D5F"/>
<path fill-rule="evenodd" clip-rule="evenodd" d="M764.633 435.259L1001.55 261.307C996.246 236.923 990.549 214.192 984.586 192.658L764.633 435.259Z" fill="#5C5D5F"/>
</g>
</svg>
