<svg width="307" height="364" viewBox="0 0 307 364" fill="none" xmlns="http://www.w3.org/2000/svg">
<g opacity="0.15">
<path fill-rule="evenodd" clip-rule="evenodd" d="M200.099 112.45L0.00390625 94.1971C0.0503463 107.34 0.112266 119.449 0.189666 130.704L200.099 112.462V112.45Z" fill="#FDFDFD"/>
<path fill-rule="evenodd" clip-rule="evenodd" d="M212.197 152.225L0.863281 188.431C1.11096 203.005 1.3896 216.376 1.68372 229.495L212.197 152.213V152.225Z" fill="#FDFDFD"/>
<path fill-rule="evenodd" clip-rule="evenodd" d="M230.568 192.121L3.13578 296.614C1.71161 316.611 1.85093 335.105 3.36798 351.963L230.568 192.121Z" fill="#FDFDFD"/>
<path fill-rule="evenodd" clip-rule="evenodd" d="M205.024 56.5083L0.300781 39.3492C0.749702 26.1583 1.6785 13.5686 3.04074 1.54404L205.024 56.5083Z" fill="#FDFDFD"/>
<path fill-rule="evenodd" clip-rule="evenodd" d="M223.922 19.4614L14.1836 -55.7882C18.1465 -69.4602 22.9298 -82.2302 28.58 -94.1466L223.922 19.4614Z" fill="#FDFDFD"/>
<path fill-rule="evenodd" clip-rule="evenodd" d="M297.42 249.597L218.208 467.891H169.121L297.42 249.597Z" fill="#FDFDFD"/>
<path fill-rule="evenodd" clip-rule="evenodd" d="M254.488 233.185L90.1675 468.037C70.1364 468.301 52.5201 460.594 38.4023 445.828L254.488 233.185Z" fill="#FDFDFD"/>
</g>
</svg>
