<svg width="42" height="42" viewBox="0 0 42 42" fill="none" xmlns="http://www.w3.org/2000/svg">
<path d="M28.6338 11.7895C28.0592 11.7895 27.4136 11.9226 26.6584 12.1948C25.4858 12.6173 11.6933 18.4734 10.1242 19.1395C9.2271 19.5209 7.55664 20.2303 7.55664 21.922C7.55664 23.0434 8.21374 23.8455 9.50734 24.3075C10.2029 24.5553 11.8548 25.056 12.8132 25.3198C13.2198 25.4315 13.6518 25.4887 14.0962 25.4887C14.9656 25.4887 15.8405 25.2721 16.5259 24.8899C16.5201 25.031 16.5239 25.1737 16.5407 25.3165C16.644 26.1985 17.1879 27.028 17.9943 27.5362C18.5218 27.8689 22.8305 30.7559 23.474 31.2145C24.3778 31.8605 25.377 32.2022 26.3615 32.2022C28.2431 32.2022 28.8744 30.2594 29.1784 29.3262C29.6194 27.9712 31.2708 16.953 31.4573 15.0101C31.5841 13.6787 31.0292 12.5823 29.9725 12.0766C29.5769 11.8859 29.1252 11.7895 28.6338 11.7895ZM28.6338 13.4695C28.8647 13.4695 29.071 13.5077 29.2457 13.5926C29.643 13.7832 29.8451 14.2083 29.7838 14.8509C29.5805 16.9702 27.9332 27.7275 27.5821 28.8061C27.2814 29.7284 26.9646 30.5222 26.3615 30.5222C25.7584 30.5222 25.0995 30.3108 24.4502 29.8462C23.8008 29.3826 19.489 26.491 18.8901 26.1138C18.3651 25.7829 17.8094 24.9578 18.5915 24.1598C19.2358 23.503 24.1229 18.7597 24.5404 18.3422C24.8512 18.0305 24.7059 17.6548 24.4009 17.6548C24.2959 17.6548 24.1702 17.699 24.04 17.8057C23.5293 18.2232 16.4091 22.9877 15.7926 23.3707C15.3843 23.6244 14.7522 23.8071 14.0962 23.8071C13.8165 23.8071 13.5333 23.7736 13.2611 23.6988C12.3136 23.4376 10.7101 22.9511 10.0734 22.7243C9.461 22.5059 9.23828 22.2967 9.23828 21.922C9.23828 21.3895 9.98999 21.0218 10.7821 20.685C11.6188 20.3297 26.0954 14.1821 27.2277 13.7747C27.7519 13.5848 28.2314 13.4695 28.6338 13.4695Z" fill="#273437"/>
</svg>
