<svg width="28" height="22" viewBox="0 0 28 22" fill="none" xmlns="http://www.w3.org/2000/svg">
<path d="M1.5 21.5C0.947715 21.5 0.5 21.0523 0.5 20.5V19.5C0.5 18.9477 0.947715 18.5 1.5 18.5H26.5C27.0523 18.5 27.5 18.9477 27.5 19.5V20.5C27.5 21.0523 27.0523 21.5 26.5 21.5H1.5ZM1.5 12.5C0.947715 12.5 0.5 12.0523 0.5 11.5V10.5C0.5 9.94771 0.947715 9.5 1.5 9.5H26.5C27.0523 9.5 27.5 9.94772 27.5 10.5V11.5C27.5 12.0523 27.0523 12.5 26.5 12.5H1.5ZM1.5 3.5C0.947715 3.5 0.5 3.05228 0.5 2.5V1.5C0.5 0.947715 0.947715 0.5 1.5 0.5H26.5C27.0523 0.5 27.5 0.947715 27.5 1.5V2.5C27.5 3.05228 27.0523 3.5 26.5 3.5H1.5Z" fill="#273437"/>
</svg>
