<svg width="42" height="42" viewBox="0 0 42 42" fill="none" xmlns="http://www.w3.org/2000/svg">
<path d="M29.6482 13.3466C28.5886 12.2816 27.3265 11.4372 25.9355 10.8626C24.5444 10.2881 23.0523 9.99485 21.5462 10.0001C15.2357 10.0001 10.0925 15.1176 10.0925 21.3965C10.0925 23.409 10.6241 25.364 11.6181 27.089L10 33L16.0678 31.413C17.7437 32.3215 19.6276 32.8045 21.5462 32.8045C27.8568 32.8045 33 27.687 33 21.408C33 18.3605 31.8095 15.4971 29.6482 13.3466ZM21.5462 30.8725C19.8357 30.8725 18.1598 30.4125 16.692 29.55L16.3452 29.343L12.7392 30.286L13.6985 26.79L13.4673 26.4335C12.517 24.9235 12.0124 23.1782 12.0111 21.3965C12.0111 16.1755 16.2874 11.9206 21.5347 11.9206C24.0774 11.9206 26.4698 12.9096 28.2613 14.7036C29.1483 15.5821 29.8513 16.6271 30.3294 17.778C30.8076 18.9289 31.0514 20.1627 31.0467 21.408C31.0698 26.629 26.7935 30.8725 21.5462 30.8725ZM26.7703 23.7885C26.4814 23.6505 25.0714 22.9605 24.8171 22.857C24.5513 22.765 24.3663 22.719 24.1698 22.995C23.9734 23.2825 23.4301 23.9265 23.2683 24.1105C23.1065 24.306 22.9332 24.329 22.6442 24.1795C22.3553 24.0415 21.4307 23.731 20.3442 22.765C19.4889 22.006 18.9226 21.0745 18.7492 20.787C18.5874 20.4995 18.7261 20.35 18.8764 20.2005C19.0035 20.074 19.1653 19.867 19.304 19.706C19.4427 19.545 19.5005 19.4185 19.593 19.2345C19.6854 19.039 19.6392 18.878 19.5698 18.74C19.5005 18.602 18.9226 17.199 18.6915 16.624C18.4603 16.0721 18.2176 16.1411 18.0442 16.1296H17.4894C17.293 16.1296 16.9925 16.1986 16.7266 16.486C16.4724 16.7735 15.7327 17.4635 15.7327 18.8665C15.7327 20.2695 16.7613 21.6265 16.9 21.8105C17.0387 22.006 18.9226 24.881 21.7889 26.1115C22.4709 26.4105 23.0025 26.583 23.4186 26.7095C24.1005 26.928 24.7246 26.8935 25.2216 26.8245C25.7764 26.744 26.9206 26.1345 27.1518 25.4675C27.3945 24.8005 27.3945 24.237 27.3136 24.1105C27.2327 23.984 27.0593 23.9265 26.7703 23.7885Z" fill="#273437"/>
</svg>
