<svg width="110" height="77" viewBox="0 0 110 77" fill="none" xmlns="http://www.w3.org/2000/svg">
<path d="M44.1673 54.6498L72.2798 38.3998L44.1673 22.1498V54.6498ZM106.784 12.2373C107.488 14.7832 107.976 18.1957 108.301 22.529C108.68 26.8623 108.842 30.5998 108.842 33.8498L109.167 38.3998C109.167 50.2623 108.301 58.9832 106.784 64.5623C105.43 69.4373 102.288 72.579 97.4132 73.9332C94.8673 74.6373 90.209 75.1248 83.059 75.4498C76.0173 75.829 69.5715 75.9915 63.6132 75.9915L55.0007 76.3165C32.3048 76.3165 18.1673 75.4498 12.5882 73.9332C7.71315 72.579 4.57148 69.4373 3.21732 64.5623C2.51315 62.0165 2.02565 58.604 1.70065 54.2707C1.32148 49.9373 1.15898 46.1998 1.15898 42.9498L0.833984 38.3998C0.833984 26.5373 1.70065 17.8165 3.21732 12.2373C4.57148 7.36232 7.71315 4.22065 12.5882 2.86649C15.134 2.16232 19.7923 1.67482 26.9423 1.34982C33.984 0.970654 40.4298 0.808154 46.3882 0.808154L55.0007 0.483154C77.6965 0.483154 91.834 1.34982 97.4132 2.86649C102.288 4.22065 105.43 7.36232 106.784 12.2373Z" fill="red"/>
</svg>
