<svg width="42" height="42" viewBox="0 0 42 42" fill="none" xmlns="http://www.w3.org/2000/svg">
<path d="M23.5723 22.875L19.1973 25.375V20.375L23.5723 22.875Z" fill="#273437" stroke="#273437" stroke-width="2.5" stroke-linecap="round" stroke-linejoin="round"/>
<path d="M8.57227 23.76V21.99C8.57227 18.3712 8.57227 16.5612 9.70352 15.3975C10.836 14.2325 12.6185 14.1825 16.1823 14.0813C17.8698 14.0338 19.5948 14 21.0723 14C22.5485 14 24.2735 14.0338 25.9623 14.0813C29.526 14.1825 31.3085 14.2325 32.4398 15.3975C33.5723 16.5612 33.5723 18.3725 33.5723 21.99V23.7587C33.5723 27.3787 33.5723 29.1875 32.441 30.3525C31.3085 31.5162 29.5273 31.5675 25.9623 31.6675C24.2748 31.7162 22.5498 31.75 21.0723 31.75C19.442 31.7451 17.8118 31.7176 16.1823 31.6675C12.6185 31.5675 10.836 31.5175 9.70352 30.3525C8.57227 29.1875 8.57227 27.3775 8.57227 23.76Z" stroke="#273437" stroke-width="2.5"/>
</svg>
